<svg width="108" height="108" viewBox="0 0 108 108" xmlns="http://www.w3.org/2000/svg">
  <path fill="#4A7DFF" d="M54,16L20,32V56C20,76.4 34.4,95.2 54,100C73.6,95.2 88,76.4 88,56V32L54,16Z" />
  <path fill="#7C4DFF" fill-opacity="0.4" d="M54,22L26,36V56C26,73.6 38,90 54,94C70,90 82,73.6 82,56V36L54,22Z" />
  <path fill="#FFFFFF" d="M44,58H64C65.1,58 66,58.9 66,60V72C66,73.1 65.1,74 64,74H44C42.9,74 42,73.1 42,72V60C42,58.9 42.9,58 44,58Z" />
  <path fill="#FFFFFF" d="M48,58V52C48,48.7 50.7,46 54,46C57.3,46 60,48.7 60,52V58H56V52C56,50.9 55.1,50 54,50C52.9,50 52,50.9 52,52V58H48Z" />
  <path fill="#4A7DFF" d="M54,63C52.9,63 52,63.9 52,65C52,65.7 52.4,66.4 52.9,66.7L52,70H56L55.1,66.7C55.6,66.4 56,65.7 56,65C56,63.9 55.1,63 54,63Z" />
</svg>
